{
  "asset": {
    "version": "2.0",
    "generator": "RayTracerView synthetic diffuse PBVR Cornell sample"
  },
  "extensionsUsed": [
    "KHR_materials_emissive_strength"
  ],
  "scene": 0,
  "scenes": [
    {
      "nodes": [
        0
      ]
    }
  ],
  "nodes": [
    {
      "mesh": 0
    }
  ],
  "meshes": [
    {
      "name": "PBVR Cornell",
      "primitives": [
        {
          "attributes": {
            "POSITION": 0,
            "NORMAL": 1
          },
          "material": 0,
          "mode": 4
        },
        {
          "attributes": {
            "POSITION": 2,
            "NORMAL": 3
          },
          "material": 1,
          "mode": 4
        },
        {
          "attributes": {
            "POSITION": 4,
            "NORMAL": 5
          },
          "material": 2,
          "mode": 4
        },
        {
          "attributes": {
            "POSITION": 6,
            "NORMAL": 7
          },
          "material": 3,
          "mode": 4
        }
      ]
    }
  ],
  "materials": [
    {
      "name": "White",
      "pbrMetallicRoughness": {
        "baseColorFactor": [
          0.73,
          0.73,
          0.73,
          1
        ],
        "metallicFactor": 0,
        "roughnessFactor": 1
      }
    },
    {
      "name": "Red",
      "pbrMetallicRoughness": {
        "baseColorFactor": [
          0.65,
          0.05,
          0.05,
          1
        ],
        "metallicFactor": 0,
        "roughnessFactor": 1
      }
    },
    {
      "name": "Green",
      "pbrMetallicRoughness": {
        "baseColorFactor": [
          0.12,
          0.45,
          0.15,
          1
        ],
        "metallicFactor": 0,
        "roughnessFactor": 1
      }
    },
    {
      "name": "Emitter",
      "pbrMetallicRoughness": {
        "baseColorFactor": [
          0,
          0,
          0,
          1
        ],
        "metallicFactor": 0,
        "roughnessFactor": 1
      },
      "emissiveFactor": [
        1,
        1,
        1
      ],
      "extensions": {
        "KHR_materials_emissive_strength": {
          "emissiveStrength": 12
        }
      }
    }
  ],
  "buffers": [
    {
      "byteLength": 2304,
      "uri": "data:application/octet-stream;base64,"
    }
  ],
  "bufferViews": [
    {
      "buffer": 0,
      "byteOffset": 0,
      "byteLength": 936,
      "target": 34962
    },
    {
      "buffer": 0,
      "byteOffset": 936,
      "byteLength": 936,
      "target": 34962
    },
    {
      "buffer": 0,
      "byteOffset": 1872,
      "byteLength": 72,
      "target": 34962
    },
    {
      "buffer": 0,
      "byteOffset": 1944,
      "byteLength": 72,
      "target": 34962
    },
    {
      "buffer": 0,
      "byteOffset": 2016,
      "byteLength": 72,
      "target": 34962
    },
    {
      "buffer": 0,
      "byteOffset": 2088,
      "byteLength": 72,
      "target": 34962
    },
    {
      "buffer": 0,
      "byteOffset": 2160,
      "byteLength": 72,
      "target": 34962
    },
    {
      "buffer": 0,
      "byteOffset": 2232,
      "byteLength": 72,
      "target": 34962
    }
  ],
  "accessors": [
    {
      "bufferView": 0,
      "componentType": 5126,
      "count": 78,
      "type": "VEC3",
      "min": [
        -1.6696729419648202,
        -1.3899780883047137,
        -1.4623439569958538
      ],
      "max": [
        1.6696729419648202,
        1.3899780883047137,
        1.4623439569958538
      ]
    },
    {
      "bufferView": 1,
      "componentType": 5126,
      "count": 78,
      "type": "VEC3"
    },
    {
      "bufferView": 2,
      "componentType": 5126,
      "count": 6,
      "type": "VEC3",
      "min": [
        -0.890836257347519,
        -1.3899780883047137,
        -1.4623439569958538
      ],
      "max": [
        1.6696729419648202,
        1.3899780883047137,
        -0.3797780310099164
      ]
    },
    {
      "bufferView": 3,
      "componentType": 5126,
      "count": 6,
      "type": "VEC3"
    },
    {
      "bufferView": 4,
      "componentType": 5126,
      "count": 6,
      "type": "VEC3",
      "min": [
        -1.6696729419648202,
        -1.3899780883047137,
        0.3797780310099164
      ],
      "max": [
        0.890836257347519,
        1.3899780883047137,
        1.4623439569958538
      ]
    },
    {
      "bufferView": 5,
      "componentType": 5126,
      "count": 6,
      "type": "VEC3"
    },
    {
      "bufferView": 6,
      "componentType": 5126,
      "count": 6,
      "type": "VEC3",
      "min": [
        -1.0322708074458746,
        0.3164771464487371,
        -0.6633623651762421
      ],
      "max": [
        -0.48657770737979716,
        0.8116785153945439,
        0.021203512817419334
      ]
    },
    {
      "bufferView": 7,
      "componentType": 5126,
      "count": 6,
      "type": "VEC3"
    }
  ]
}
