{
  "asset": {
    "version": "2.0"
  },
  "extensionsUsed": ["KHR_lights_punctual"],
  "extensions": {
    "KHR_lights_punctual": {
      "lights": [
        { "type": "directional", "color": [1.0, 1.0, 1.0], "intensity": 3000.0 }
      ]
    }
  },
  "scene": 0,
  "scenes": [
    {
      "nodes": [0, 1, 2]
    }
  ],
  "cameras": [
    {
      "type": "perspective",
      "perspective": { "yfov": 0.8, "aspectRatio": 1.0, "znear": 0.1, "zfar": 100.0 }
    }
  ],
  "nodes": [
    {
      "mesh": 0
    },
    {
      "translation": [0.0, 0.0, 3.0],
      "camera": 0
    },
    {
      "translation": [0.0, 0.0, 3.0],
      "extensions": {
        "KHR_lights_punctual": { "light": 0 }
      }
    }
  ],
  "meshes": [
    {
      "name": "Triangle",
      "primitives": [
        {
          "attributes": {
            "POSITION": 0
          }
        }
      ]
    }
  ],
  "accessors": [
    {
      "bufferView": 0,
      "componentType": 5126,
      "count": 3,
      "type": "VEC3",
      "min": [-0.5, -0.5, 0.0],
      "max": [0.5, 0.5, 0.0]
    }
  ],
  "bufferViews": [
    {
      "buffer": 0,
      "byteOffset": 0,
      "byteLength": 36
    }
  ],
  "buffers": [
    {
      "byteLength": 36,
      "uri": "data:application/octet-stream;base64,"
    }
  ]
}
